<mxfile host="app.diagrams.net" modified="2023-11-05T12:27:19.325Z" agent="Mozilla/5.0 (Windows NT 10.0; Win64; x64) AppleWebKit/537.36 (KHTML, like Gecko) Chrome/119.0.0.0 Safari/537.36" etag="DsSt61AF1Ese-iYqOTVx" version="21.8.2" type="device">
  <diagram id="C5RBs43oDa-KdzZeNtuy" name="Page-1">
    <mxGraphModel dx="1050" dy="534" grid="1" gridSize="10" guides="1" tooltips="1" connect="1" arrows="1" fold="1" page="1" pageScale="1" pageWidth="827" pageHeight="1169" math="0" shadow="0">
      <root>
        <mxCell id="WIyWlLk6GJQsqaUBKTNV-0" />
        <mxCell id="WIyWlLk6GJQsqaUBKTNV-1" parent="WIyWlLk6GJQsqaUBKTNV-0" />
        <mxCell id="WIyWlLk6GJQsqaUBKTNV-2" value="" style="rounded=0;html=1;jettySize=auto;orthogonalLoop=1;fontSize=11;endArrow=block;endFill=0;endSize=8;strokeWidth=1;shadow=0;labelBackgroundColor=none;edgeStyle=orthogonalEdgeStyle;" parent="WIyWlLk6GJQsqaUBKTNV-1" source="WIyWlLk6GJQsqaUBKTNV-3" target="WIyWlLk6GJQsqaUBKTNV-6" edge="1">
          <mxGeometry relative="1" as="geometry" />
        </mxCell>
        <mxCell id="hu2WO9-6zNTlyU-qjEW1-1" style="edgeStyle=orthogonalEdgeStyle;rounded=0;orthogonalLoop=1;jettySize=auto;html=1;exitX=0;exitY=0.5;exitDx=0;exitDy=0;entryX=0;entryY=0.5;entryDx=0;entryDy=0;" edge="1" parent="WIyWlLk6GJQsqaUBKTNV-1" source="WIyWlLk6GJQsqaUBKTNV-3" target="hu2WO9-6zNTlyU-qjEW1-0">
          <mxGeometry relative="1" as="geometry">
            <Array as="points">
              <mxPoint x="110" y="100" />
              <mxPoint x="110" y="320" />
            </Array>
          </mxGeometry>
        </mxCell>
        <mxCell id="hu2WO9-6zNTlyU-qjEW1-6" value="Give the result" style="edgeLabel;html=1;align=center;verticalAlign=middle;resizable=0;points=[];" vertex="1" connectable="0" parent="hu2WO9-6zNTlyU-qjEW1-1">
          <mxGeometry x="-0.04" relative="1" as="geometry">
            <mxPoint as="offset" />
          </mxGeometry>
        </mxCell>
        <mxCell id="hu2WO9-6zNTlyU-qjEW1-13" style="edgeStyle=orthogonalEdgeStyle;rounded=0;orthogonalLoop=1;jettySize=auto;html=1;entryX=0.5;entryY=0;entryDx=0;entryDy=0;" edge="1" parent="WIyWlLk6GJQsqaUBKTNV-1" source="WIyWlLk6GJQsqaUBKTNV-3" target="hu2WO9-6zNTlyU-qjEW1-12">
          <mxGeometry relative="1" as="geometry" />
        </mxCell>
        <mxCell id="hu2WO9-6zNTlyU-qjEW1-23" style="edgeStyle=orthogonalEdgeStyle;rounded=0;orthogonalLoop=1;jettySize=auto;html=1;exitX=1;exitY=0.5;exitDx=0;exitDy=0;entryX=0.5;entryY=0;entryDx=0;entryDy=0;" edge="1" parent="WIyWlLk6GJQsqaUBKTNV-1" source="WIyWlLk6GJQsqaUBKTNV-3" target="hu2WO9-6zNTlyU-qjEW1-24">
          <mxGeometry relative="1" as="geometry">
            <mxPoint x="760" y="310" as="targetPoint" />
          </mxGeometry>
        </mxCell>
        <mxCell id="hu2WO9-6zNTlyU-qjEW1-58" style="edgeStyle=orthogonalEdgeStyle;rounded=0;orthogonalLoop=1;jettySize=auto;html=1;exitX=1;exitY=0.5;exitDx=0;exitDy=0;entryX=0.5;entryY=0;entryDx=0;entryDy=0;" edge="1" parent="WIyWlLk6GJQsqaUBKTNV-1" source="WIyWlLk6GJQsqaUBKTNV-3" target="hu2WO9-6zNTlyU-qjEW1-57">
          <mxGeometry relative="1" as="geometry" />
        </mxCell>
        <mxCell id="WIyWlLk6GJQsqaUBKTNV-3" value="Gesture Prediction Result" style="rounded=1;whiteSpace=wrap;html=1;fontSize=12;glass=0;strokeWidth=1;shadow=0;" parent="WIyWlLk6GJQsqaUBKTNV-1" vertex="1">
          <mxGeometry x="160" y="80" width="120" height="40" as="geometry" />
        </mxCell>
        <mxCell id="WIyWlLk6GJQsqaUBKTNV-4" value="" style="rounded=0;html=1;jettySize=auto;orthogonalLoop=1;fontSize=11;endArrow=block;endFill=0;endSize=8;strokeWidth=1;shadow=0;labelBackgroundColor=none;edgeStyle=orthogonalEdgeStyle;" parent="WIyWlLk6GJQsqaUBKTNV-1" source="WIyWlLk6GJQsqaUBKTNV-6" edge="1">
          <mxGeometry x="-0.5745" relative="1" as="geometry">
            <mxPoint as="offset" />
            <mxPoint x="220" y="290" as="targetPoint" />
          </mxGeometry>
        </mxCell>
        <mxCell id="WIyWlLk6GJQsqaUBKTNV-5" value="No" style="edgeStyle=orthogonalEdgeStyle;rounded=0;html=1;jettySize=auto;orthogonalLoop=1;fontSize=11;endArrow=block;endFill=0;endSize=8;strokeWidth=1;shadow=0;labelBackgroundColor=none;" parent="WIyWlLk6GJQsqaUBKTNV-1" source="WIyWlLk6GJQsqaUBKTNV-6" target="WIyWlLk6GJQsqaUBKTNV-7" edge="1">
          <mxGeometry y="10" relative="1" as="geometry">
            <mxPoint as="offset" />
          </mxGeometry>
        </mxCell>
        <mxCell id="hu2WO9-6zNTlyU-qjEW1-5" value="" style="edgeStyle=orthogonalEdgeStyle;rounded=0;orthogonalLoop=1;jettySize=auto;html=1;" edge="1" parent="WIyWlLk6GJQsqaUBKTNV-1" source="WIyWlLk6GJQsqaUBKTNV-6" target="hu2WO9-6zNTlyU-qjEW1-0">
          <mxGeometry relative="1" as="geometry" />
        </mxCell>
        <mxCell id="WIyWlLk6GJQsqaUBKTNV-6" value="G1" style="rhombus;whiteSpace=wrap;html=1;shadow=0;fontFamily=Helvetica;fontSize=12;align=center;strokeWidth=1;spacing=6;spacingTop=-4;" parent="WIyWlLk6GJQsqaUBKTNV-1" vertex="1">
          <mxGeometry x="200" y="190" width="40" height="40" as="geometry" />
        </mxCell>
        <mxCell id="WIyWlLk6GJQsqaUBKTNV-7" value="Print predition result only" style="rounded=1;whiteSpace=wrap;html=1;fontSize=12;glass=0;strokeWidth=1;shadow=0;" parent="WIyWlLk6GJQsqaUBKTNV-1" vertex="1">
          <mxGeometry x="294" y="190" width="120" height="40" as="geometry" />
        </mxCell>
        <mxCell id="WIyWlLk6GJQsqaUBKTNV-8" value="" style="rounded=0;html=1;jettySize=auto;orthogonalLoop=1;fontSize=11;endArrow=block;endFill=0;endSize=8;strokeWidth=1;shadow=0;labelBackgroundColor=none;edgeStyle=orthogonalEdgeStyle;" parent="WIyWlLk6GJQsqaUBKTNV-1" edge="1">
          <mxGeometry x="0.3333" y="20" relative="1" as="geometry">
            <mxPoint as="offset" />
            <mxPoint x="219.5" y="420" as="sourcePoint" />
            <mxPoint x="219.5" y="460" as="targetPoint" />
          </mxGeometry>
        </mxCell>
        <mxCell id="hu2WO9-6zNTlyU-qjEW1-4" style="edgeStyle=orthogonalEdgeStyle;rounded=0;orthogonalLoop=1;jettySize=auto;html=1;exitX=0.5;exitY=1;exitDx=0;exitDy=0;entryX=0.5;entryY=0;entryDx=0;entryDy=0;" edge="1" parent="WIyWlLk6GJQsqaUBKTNV-1" source="hu2WO9-6zNTlyU-qjEW1-0">
          <mxGeometry relative="1" as="geometry">
            <mxPoint x="220" y="380" as="targetPoint" />
          </mxGeometry>
        </mxCell>
        <mxCell id="hu2WO9-6zNTlyU-qjEW1-8" value="" style="edgeStyle=orthogonalEdgeStyle;rounded=0;orthogonalLoop=1;jettySize=auto;html=1;" edge="1" parent="WIyWlLk6GJQsqaUBKTNV-1" source="hu2WO9-6zNTlyU-qjEW1-0" target="hu2WO9-6zNTlyU-qjEW1-7">
          <mxGeometry relative="1" as="geometry" />
        </mxCell>
        <mxCell id="hu2WO9-6zNTlyU-qjEW1-0" value="A Window to make sure start control mode" style="rounded=1;whiteSpace=wrap;html=1;" vertex="1" parent="WIyWlLk6GJQsqaUBKTNV-1">
          <mxGeometry x="160" y="290" width="120" height="60" as="geometry" />
        </mxCell>
        <mxCell id="hu2WO9-6zNTlyU-qjEW1-3" value="" style="rounded=0;html=1;jettySize=auto;orthogonalLoop=1;fontSize=11;endArrow=block;endFill=0;endSize=8;strokeWidth=1;shadow=0;labelBackgroundColor=none;edgeStyle=orthogonalEdgeStyle;" edge="1" parent="WIyWlLk6GJQsqaUBKTNV-1">
          <mxGeometry x="0.3333" y="20" relative="1" as="geometry">
            <mxPoint as="offset" />
            <mxPoint x="220" y="370" as="sourcePoint" />
            <mxPoint x="220" y="380" as="targetPoint" />
          </mxGeometry>
        </mxCell>
        <mxCell id="hu2WO9-6zNTlyU-qjEW1-14" style="edgeStyle=orthogonalEdgeStyle;rounded=0;orthogonalLoop=1;jettySize=auto;html=1;exitX=1;exitY=0.5;exitDx=0;exitDy=0;" edge="1" parent="WIyWlLk6GJQsqaUBKTNV-1" source="hu2WO9-6zNTlyU-qjEW1-7" target="hu2WO9-6zNTlyU-qjEW1-12">
          <mxGeometry relative="1" as="geometry" />
        </mxCell>
        <mxCell id="hu2WO9-6zNTlyU-qjEW1-7" value="G2" style="rhombus;whiteSpace=wrap;html=1;" vertex="1" parent="WIyWlLk6GJQsqaUBKTNV-1">
          <mxGeometry x="310" y="295" width="40" height="50" as="geometry" />
        </mxCell>
        <mxCell id="hu2WO9-6zNTlyU-qjEW1-9" value="G3" style="rhombus;whiteSpace=wrap;html=1;" vertex="1" parent="WIyWlLk6GJQsqaUBKTNV-1">
          <mxGeometry x="200" y="380" width="40" height="40" as="geometry" />
        </mxCell>
        <mxCell id="hu2WO9-6zNTlyU-qjEW1-10" value="Close the Window.&lt;br&gt;Print predition result only" style="rounded=1;whiteSpace=wrap;html=1;fontSize=12;glass=0;strokeWidth=1;shadow=0;" vertex="1" parent="WIyWlLk6GJQsqaUBKTNV-1">
          <mxGeometry x="160" y="460" width="120" height="40" as="geometry" />
        </mxCell>
        <mxCell id="hu2WO9-6zNTlyU-qjEW1-16" value="" style="edgeStyle=orthogonalEdgeStyle;rounded=0;orthogonalLoop=1;jettySize=auto;html=1;" edge="1" parent="WIyWlLk6GJQsqaUBKTNV-1" source="hu2WO9-6zNTlyU-qjEW1-12">
          <mxGeometry relative="1" as="geometry">
            <mxPoint x="540" y="320" as="targetPoint" />
          </mxGeometry>
        </mxCell>
        <mxCell id="hu2WO9-6zNTlyU-qjEW1-37" style="edgeStyle=orthogonalEdgeStyle;rounded=0;orthogonalLoop=1;jettySize=auto;html=1;exitX=0.75;exitY=0;exitDx=0;exitDy=0;entryX=0;entryY=0.5;entryDx=0;entryDy=0;" edge="1" parent="WIyWlLk6GJQsqaUBKTNV-1" source="hu2WO9-6zNTlyU-qjEW1-12" target="hu2WO9-6zNTlyU-qjEW1-26">
          <mxGeometry relative="1" as="geometry" />
        </mxCell>
        <mxCell id="hu2WO9-6zNTlyU-qjEW1-38" style="edgeStyle=orthogonalEdgeStyle;rounded=0;orthogonalLoop=1;jettySize=auto;html=1;exitX=1;exitY=0;exitDx=0;exitDy=0;entryX=0.5;entryY=1;entryDx=0;entryDy=0;" edge="1" parent="WIyWlLk6GJQsqaUBKTNV-1" source="hu2WO9-6zNTlyU-qjEW1-12" target="hu2WO9-6zNTlyU-qjEW1-27">
          <mxGeometry relative="1" as="geometry" />
        </mxCell>
        <mxCell id="hu2WO9-6zNTlyU-qjEW1-42" style="edgeStyle=orthogonalEdgeStyle;rounded=0;orthogonalLoop=1;jettySize=auto;html=1;exitX=0.5;exitY=1;exitDx=0;exitDy=0;entryX=0.5;entryY=0;entryDx=0;entryDy=0;" edge="1" parent="WIyWlLk6GJQsqaUBKTNV-1" source="hu2WO9-6zNTlyU-qjEW1-12" target="hu2WO9-6zNTlyU-qjEW1-41">
          <mxGeometry relative="1" as="geometry" />
        </mxCell>
        <mxCell id="hu2WO9-6zNTlyU-qjEW1-55" style="edgeStyle=orthogonalEdgeStyle;rounded=0;orthogonalLoop=1;jettySize=auto;html=1;exitX=0.5;exitY=1;exitDx=0;exitDy=0;" edge="1" parent="WIyWlLk6GJQsqaUBKTNV-1" source="hu2WO9-6zNTlyU-qjEW1-12" target="hu2WO9-6zNTlyU-qjEW1-52">
          <mxGeometry relative="1" as="geometry" />
        </mxCell>
        <mxCell id="hu2WO9-6zNTlyU-qjEW1-12" value="Receive next gesture" style="rounded=1;whiteSpace=wrap;html=1;" vertex="1" parent="WIyWlLk6GJQsqaUBKTNV-1">
          <mxGeometry x="370" y="290" width="120" height="60" as="geometry" />
        </mxCell>
        <mxCell id="hu2WO9-6zNTlyU-qjEW1-17" value="Open Camera" style="whiteSpace=wrap;html=1;rounded=1;" vertex="1" parent="WIyWlLk6GJQsqaUBKTNV-1">
          <mxGeometry x="515" y="385" width="90" height="30" as="geometry" />
        </mxCell>
        <mxCell id="hu2WO9-6zNTlyU-qjEW1-20" value="You cannot do anyting on camera before opening it. Print predition result only" style="rounded=1;whiteSpace=wrap;html=1;fontSize=12;glass=0;strokeWidth=1;shadow=0;" vertex="1" parent="WIyWlLk6GJQsqaUBKTNV-1">
          <mxGeometry x="550" y="120" width="150" height="60" as="geometry" />
        </mxCell>
        <mxCell id="hu2WO9-6zNTlyU-qjEW1-25" style="edgeStyle=orthogonalEdgeStyle;rounded=0;orthogonalLoop=1;jettySize=auto;html=1;exitX=1;exitY=0.5;exitDx=0;exitDy=0;" edge="1" parent="WIyWlLk6GJQsqaUBKTNV-1" source="hu2WO9-6zNTlyU-qjEW1-21" target="hu2WO9-6zNTlyU-qjEW1-24">
          <mxGeometry relative="1" as="geometry" />
        </mxCell>
        <mxCell id="hu2WO9-6zNTlyU-qjEW1-34" style="edgeStyle=orthogonalEdgeStyle;rounded=0;orthogonalLoop=1;jettySize=auto;html=1;exitX=0.5;exitY=1;exitDx=0;exitDy=0;entryX=0.5;entryY=0;entryDx=0;entryDy=0;" edge="1" parent="WIyWlLk6GJQsqaUBKTNV-1" source="hu2WO9-6zNTlyU-qjEW1-21" target="hu2WO9-6zNTlyU-qjEW1-17">
          <mxGeometry relative="1" as="geometry" />
        </mxCell>
        <mxCell id="hu2WO9-6zNTlyU-qjEW1-21" value="G4" style="rhombus;whiteSpace=wrap;html=1;" vertex="1" parent="WIyWlLk6GJQsqaUBKTNV-1">
          <mxGeometry x="540" y="300" width="40" height="40" as="geometry" />
        </mxCell>
        <mxCell id="hu2WO9-6zNTlyU-qjEW1-43" style="edgeStyle=orthogonalEdgeStyle;rounded=0;orthogonalLoop=1;jettySize=auto;html=1;exitX=0.5;exitY=1;exitDx=0;exitDy=0;entryX=1;entryY=0.5;entryDx=0;entryDy=0;" edge="1" parent="WIyWlLk6GJQsqaUBKTNV-1" source="hu2WO9-6zNTlyU-qjEW1-24" target="hu2WO9-6zNTlyU-qjEW1-41">
          <mxGeometry relative="1" as="geometry">
            <Array as="points">
              <mxPoint x="710" y="360" />
              <mxPoint x="439" y="360" />
            </Array>
          </mxGeometry>
        </mxCell>
        <mxCell id="hu2WO9-6zNTlyU-qjEW1-46" style="edgeStyle=orthogonalEdgeStyle;rounded=0;orthogonalLoop=1;jettySize=auto;html=1;entryX=0;entryY=0.5;entryDx=0;entryDy=0;" edge="1" parent="WIyWlLk6GJQsqaUBKTNV-1" source="hu2WO9-6zNTlyU-qjEW1-24" target="hu2WO9-6zNTlyU-qjEW1-33">
          <mxGeometry relative="1" as="geometry" />
        </mxCell>
        <mxCell id="hu2WO9-6zNTlyU-qjEW1-47" style="edgeStyle=orthogonalEdgeStyle;rounded=0;orthogonalLoop=1;jettySize=auto;html=1;exitX=1;exitY=0.75;exitDx=0;exitDy=0;" edge="1" parent="WIyWlLk6GJQsqaUBKTNV-1" source="hu2WO9-6zNTlyU-qjEW1-24" target="hu2WO9-6zNTlyU-qjEW1-39">
          <mxGeometry relative="1" as="geometry" />
        </mxCell>
        <mxCell id="hu2WO9-6zNTlyU-qjEW1-56" style="edgeStyle=orthogonalEdgeStyle;rounded=0;orthogonalLoop=1;jettySize=auto;html=1;exitX=0.75;exitY=1;exitDx=0;exitDy=0;" edge="1" parent="WIyWlLk6GJQsqaUBKTNV-1" source="hu2WO9-6zNTlyU-qjEW1-24">
          <mxGeometry relative="1" as="geometry">
            <mxPoint x="730" y="390" as="targetPoint" />
          </mxGeometry>
        </mxCell>
        <mxCell id="hu2WO9-6zNTlyU-qjEW1-24" value="Receive next gesture" style="rounded=1;whiteSpace=wrap;html=1;" vertex="1" parent="WIyWlLk6GJQsqaUBKTNV-1">
          <mxGeometry x="650" y="290" width="120" height="60" as="geometry" />
        </mxCell>
        <mxCell id="hu2WO9-6zNTlyU-qjEW1-26" value="G5" style="rhombus;whiteSpace=wrap;html=1;" vertex="1" parent="WIyWlLk6GJQsqaUBKTNV-1">
          <mxGeometry x="460" y="120" width="50" height="50" as="geometry" />
        </mxCell>
        <mxCell id="hu2WO9-6zNTlyU-qjEW1-36" style="edgeStyle=orthogonalEdgeStyle;rounded=0;orthogonalLoop=1;jettySize=auto;html=1;exitX=1;exitY=0.5;exitDx=0;exitDy=0;entryX=0;entryY=0.5;entryDx=0;entryDy=0;" edge="1" parent="WIyWlLk6GJQsqaUBKTNV-1" source="hu2WO9-6zNTlyU-qjEW1-27" target="hu2WO9-6zNTlyU-qjEW1-20">
          <mxGeometry relative="1" as="geometry" />
        </mxCell>
        <mxCell id="hu2WO9-6zNTlyU-qjEW1-27" value="G6" style="rhombus;whiteSpace=wrap;html=1;" vertex="1" parent="WIyWlLk6GJQsqaUBKTNV-1">
          <mxGeometry x="460" y="190" width="50" height="50" as="geometry" />
        </mxCell>
        <mxCell id="hu2WO9-6zNTlyU-qjEW1-30" style="edgeStyle=orthogonalEdgeStyle;rounded=0;orthogonalLoop=1;jettySize=auto;html=1;exitX=1;exitY=0.5;exitDx=0;exitDy=0;entryX=0.005;entryY=0.64;entryDx=0;entryDy=0;entryPerimeter=0;" edge="1" parent="WIyWlLk6GJQsqaUBKTNV-1" source="hu2WO9-6zNTlyU-qjEW1-26" target="hu2WO9-6zNTlyU-qjEW1-20">
          <mxGeometry relative="1" as="geometry" />
        </mxCell>
        <mxCell id="hu2WO9-6zNTlyU-qjEW1-51" style="edgeStyle=orthogonalEdgeStyle;rounded=0;orthogonalLoop=1;jettySize=auto;html=1;exitX=1;exitY=0.5;exitDx=0;exitDy=0;" edge="1" parent="WIyWlLk6GJQsqaUBKTNV-1" source="hu2WO9-6zNTlyU-qjEW1-33" target="hu2WO9-6zNTlyU-qjEW1-49">
          <mxGeometry relative="1" as="geometry" />
        </mxCell>
        <mxCell id="hu2WO9-6zNTlyU-qjEW1-33" value="G5" style="rhombus;whiteSpace=wrap;html=1;" vertex="1" parent="WIyWlLk6GJQsqaUBKTNV-1">
          <mxGeometry x="800" y="245" width="50" height="50" as="geometry" />
        </mxCell>
        <mxCell id="hu2WO9-6zNTlyU-qjEW1-50" style="edgeStyle=orthogonalEdgeStyle;rounded=0;orthogonalLoop=1;jettySize=auto;html=1;exitX=1;exitY=0.5;exitDx=0;exitDy=0;entryX=0;entryY=0.5;entryDx=0;entryDy=0;" edge="1" parent="WIyWlLk6GJQsqaUBKTNV-1" source="hu2WO9-6zNTlyU-qjEW1-39" target="hu2WO9-6zNTlyU-qjEW1-48">
          <mxGeometry relative="1" as="geometry" />
        </mxCell>
        <mxCell id="hu2WO9-6zNTlyU-qjEW1-39" value="G6" style="rhombus;whiteSpace=wrap;html=1;" vertex="1" parent="WIyWlLk6GJQsqaUBKTNV-1">
          <mxGeometry x="800" y="340" width="50" height="50" as="geometry" />
        </mxCell>
        <mxCell id="hu2WO9-6zNTlyU-qjEW1-45" value="" style="edgeStyle=orthogonalEdgeStyle;rounded=0;orthogonalLoop=1;jettySize=auto;html=1;" edge="1" parent="WIyWlLk6GJQsqaUBKTNV-1" source="hu2WO9-6zNTlyU-qjEW1-41" target="hu2WO9-6zNTlyU-qjEW1-44">
          <mxGeometry relative="1" as="geometry" />
        </mxCell>
        <mxCell id="hu2WO9-6zNTlyU-qjEW1-41" value="G7" style="rhombus;whiteSpace=wrap;html=1;" vertex="1" parent="WIyWlLk6GJQsqaUBKTNV-1">
          <mxGeometry x="389" y="385" width="50" height="35" as="geometry" />
        </mxCell>
        <mxCell id="hu2WO9-6zNTlyU-qjEW1-44" value="Screenshot" style="rounded=1;whiteSpace=wrap;html=1;fontSize=12;glass=0;strokeWidth=1;shadow=0;" vertex="1" parent="WIyWlLk6GJQsqaUBKTNV-1">
          <mxGeometry x="354" y="460" width="120" height="40" as="geometry" />
        </mxCell>
        <mxCell id="hu2WO9-6zNTlyU-qjEW1-60" style="edgeStyle=orthogonalEdgeStyle;rounded=0;orthogonalLoop=1;jettySize=auto;html=1;exitX=1;exitY=0.5;exitDx=0;exitDy=0;entryX=1;entryY=0.5;entryDx=0;entryDy=0;" edge="1" parent="WIyWlLk6GJQsqaUBKTNV-1" source="hu2WO9-6zNTlyU-qjEW1-48" target="hu2WO9-6zNTlyU-qjEW1-57">
          <mxGeometry relative="1" as="geometry" />
        </mxCell>
        <mxCell id="hu2WO9-6zNTlyU-qjEW1-48" value="Take a photo" style="rounded=1;whiteSpace=wrap;html=1;" vertex="1" parent="WIyWlLk6GJQsqaUBKTNV-1">
          <mxGeometry x="870" y="330" width="120" height="60" as="geometry" />
        </mxCell>
        <mxCell id="hu2WO9-6zNTlyU-qjEW1-59" style="edgeStyle=orthogonalEdgeStyle;rounded=0;orthogonalLoop=1;jettySize=auto;html=1;exitX=0.5;exitY=0;exitDx=0;exitDy=0;" edge="1" parent="WIyWlLk6GJQsqaUBKTNV-1" source="hu2WO9-6zNTlyU-qjEW1-49" target="hu2WO9-6zNTlyU-qjEW1-57">
          <mxGeometry relative="1" as="geometry" />
        </mxCell>
        <mxCell id="hu2WO9-6zNTlyU-qjEW1-49" value="close the camera" style="rounded=1;whiteSpace=wrap;html=1;" vertex="1" parent="WIyWlLk6GJQsqaUBKTNV-1">
          <mxGeometry x="870" y="240" width="120" height="60" as="geometry" />
        </mxCell>
        <mxCell id="hu2WO9-6zNTlyU-qjEW1-54" style="edgeStyle=orthogonalEdgeStyle;rounded=0;orthogonalLoop=1;jettySize=auto;html=1;exitX=0.5;exitY=1;exitDx=0;exitDy=0;entryX=0.5;entryY=0;entryDx=0;entryDy=0;" edge="1" parent="WIyWlLk6GJQsqaUBKTNV-1" source="hu2WO9-6zNTlyU-qjEW1-52" target="hu2WO9-6zNTlyU-qjEW1-53">
          <mxGeometry relative="1" as="geometry" />
        </mxCell>
        <mxCell id="hu2WO9-6zNTlyU-qjEW1-52" value="G8" style="rhombus;whiteSpace=wrap;html=1;" vertex="1" parent="WIyWlLk6GJQsqaUBKTNV-1">
          <mxGeometry x="700" y="390" width="50" height="40" as="geometry" />
        </mxCell>
        <mxCell id="hu2WO9-6zNTlyU-qjEW1-53" value="Exit Control Mode" style="rounded=1;whiteSpace=wrap;html=1;fontSize=12;glass=0;strokeWidth=1;shadow=0;" vertex="1" parent="WIyWlLk6GJQsqaUBKTNV-1">
          <mxGeometry x="665" y="460" width="120" height="40" as="geometry" />
        </mxCell>
        <mxCell id="hu2WO9-6zNTlyU-qjEW1-61" style="edgeStyle=orthogonalEdgeStyle;rounded=0;orthogonalLoop=1;jettySize=auto;html=1;exitX=1;exitY=0.25;exitDx=0;exitDy=0;" edge="1" parent="WIyWlLk6GJQsqaUBKTNV-1">
          <mxGeometry relative="1" as="geometry">
            <mxPoint x="990" y="132.5" as="sourcePoint" />
            <mxPoint x="750" y="407.5" as="targetPoint" />
            <Array as="points">
              <mxPoint x="1020" y="133" />
              <mxPoint x="1020" y="408" />
            </Array>
          </mxGeometry>
        </mxCell>
        <mxCell id="hu2WO9-6zNTlyU-qjEW1-63" style="edgeStyle=orthogonalEdgeStyle;rounded=0;orthogonalLoop=1;jettySize=auto;html=1;exitX=1;exitY=0.25;exitDx=0;exitDy=0;entryX=1;entryY=0.5;entryDx=0;entryDy=0;" edge="1" parent="WIyWlLk6GJQsqaUBKTNV-1" source="hu2WO9-6zNTlyU-qjEW1-57" target="hu2WO9-6zNTlyU-qjEW1-41">
          <mxGeometry relative="1" as="geometry">
            <Array as="points">
              <mxPoint x="1010" y="135" />
              <mxPoint x="1010" y="440" />
              <mxPoint x="439" y="440" />
            </Array>
          </mxGeometry>
        </mxCell>
        <mxCell id="hu2WO9-6zNTlyU-qjEW1-57" value="Receive next gesture" style="rounded=1;whiteSpace=wrap;html=1;" vertex="1" parent="WIyWlLk6GJQsqaUBKTNV-1">
          <mxGeometry x="870" y="120" width="120" height="60" as="geometry" />
        </mxCell>
      </root>
    </mxGraphModel>
  </diagram>
</mxfile>
